<?xml version="1.0" encoding="UTF-8"?><svg id="Camada_1" xmlns="http://www.w3.org/2000/svg" viewBox="0 0 30 25.56"><defs><style>.cls-1{fill:#e0cce2;}</style></defs><path class="cls-1" d="M29.55,12.16c-.52,1.63-1.54,3.1-2.96,4.24l-11.11,8.98c-.14,.12-.31,.18-.49,.18s-.34-.06-.49-.18L3.41,16.4c-1.41-1.15-2.44-2.61-2.96-4.24-1.12-3.49-.12-7.36,2.54-9.85C5.46,0,8.86-.62,12.1,.65c1.26,.49,2.27,1.61,2.89,2.46,.63-.84,1.65-1.97,2.9-2.46C21.13-.62,24.54,0,27.01,2.31c2.66,2.5,3.66,6.36,2.54,9.85Z"/></svg>