<?xml version="1.0" encoding="UTF-8"?><svg id="a" xmlns="http://www.w3.org/2000/svg" viewBox="0 0 1080 278.34"><defs><style>.b{fill:#998c6d;}</style></defs><g><g><path class="b" d="M540,260.98c-.8,5.79-4.79,12.57,0,17.36,4.79-4.79,.8-11.57,0-17.36Z"/><path class="b" d="M540,259.92c.8-5.79,4.79-12.57,0-17.36-4.79,4.79-.8,11.57,0,17.36Z"/></g><g><path class="b" d="M539.47,260.45c-5.79-.8-12.57-4.79-17.36,0,4.79,4.79,11.57,.8,17.36,0Z"/><path class="b" d="M540.53,260.45c5.79,.8,12.57,4.79,17.36,0-4.79-4.79-11.57-.8-17.36,0Z"/></g><g><path class="b" d="M539.73,260.72c-3.39,2.57-8.94,4-8.94,8.94,4.94,0,6.37-5.55,8.94-8.94Z"/><path class="b" d="M540.27,260.18c3.39-2.57,8.94-4,8.94-8.94-4.94,0-6.37,5.55-8.94,8.94Z"/></g><g><path class="b" d="M539.73,260.18c-2.57-3.39-4-8.94-8.94-8.94,0,4.94,5.55,6.37,8.94,8.94Z"/><path class="b" d="M540.27,260.72c2.57,3.39,4,8.94,8.94,8.94,0-4.94-5.55-6.37-8.94-8.94Z"/></g></g><g><path class="b" d="M151.33,177.25v33.63h-4.07v-4.69c-2.41,3.46-5.68,5.26-9.71,5.26-6.82,0-11.51-5.07-11.51-12.41s4.69-12.41,11.51-12.41c4.03,0,7.3,1.8,9.71,5.26v-14.63h4.07Zm-4.07,17.9c-2.18-3.03-5.54-4.83-9.04-4.83-4.88,0-8,3.46-8,8.71s3.12,8.72,8,8.72c3.5,0,6.87-1.8,9.04-4.83v-7.77Z"/><path class="b" d="M166.64,200.32c.52,4.74,4.27,7.44,10.42,7.44,3.36,0,5.97-.85,8.76-2.89l1.61,3.36c-2.98,2.18-6.49,3.22-10.7,3.22-8.86,0-14.35-4.78-14.35-12.41s5.3-12.41,13.21-12.41,13.07,4.93,13.07,12.46c0,.38,0,.8-.05,1.23h-21.98Zm.15-3.41h17.8c-.85-4.03-4.21-6.58-8.9-6.58s-8.05,2.56-8.9,6.58Z"/><path class="b" d="M197.42,207.94l1.8-3.27c3.22,2.04,6.63,3.17,10.94,3.17,4.69,0,7.34-1.28,7.34-3.6,0-2.13-1.61-2.8-8-3.32-8.2-.66-10.99-2.46-10.99-7.06s4.21-7.25,11.04-7.25c4.21,0,7.91,.99,10.66,2.89l-1.61,3.27c-2.37-1.66-5.59-2.56-9.29-2.56-4.26,0-6.68,1.28-6.68,3.51s1.66,2.8,8.05,3.32c8.1,.66,10.94,2.46,10.94,7.06s-4.17,7.34-11.6,7.34c-5.07,0-9.29-1.28-12.6-3.51Z"/><path class="b" d="M231.54,179.9c0-1.56,1.14-2.65,2.79-2.65s2.79,1.09,2.79,2.65-1.14,2.65-2.79,2.65-2.79-1.09-2.79-2.65Zm.76,7.29h4.07v23.68h-4.07v-23.68Z"/><path class="b" d="M272.71,187.2v21.6c0,7.58-4.64,11.65-13.26,11.65-3.93,0-7.29-.85-10.13-2.56l1.42-3.41c2.8,1.61,5.35,2.27,8.38,2.27,6.3,0,9.52-2.84,9.52-8.38v-2.18c-2.41,3.46-5.68,5.26-9.71,5.26-6.82,0-11.51-5.07-11.51-12.41s4.69-12.41,11.51-12.41c4.03,0,7.3,1.8,9.71,5.26v-4.69h4.07Zm-4.07,7.96c-2.18-3.03-5.54-4.83-9.04-4.83-4.88,0-8,3.46-8,8.71s3.12,8.72,8,8.72c3.5,0,6.87-1.8,9.04-4.83v-7.77Z"/><path class="b" d="M308.75,195.77v15.11h-4.07v-14.35c0-4.07-2.18-6.2-6.25-6.2-3.79,0-6.82,1.85-9.14,4.83v15.72h-4.07v-23.68h4.07v4.69c2.65-3.46,6.11-5.26,10.28-5.26,5.73,0,9.19,3.36,9.19,9.14Z"/><path class="b" d="M323.74,200.32c.52,4.74,4.26,7.44,10.42,7.44,3.36,0,5.97-.85,8.76-2.89l1.61,3.36c-2.99,2.18-6.49,3.22-10.71,3.22-8.86,0-14.35-4.78-14.35-12.41s5.3-12.41,13.21-12.41,13.07,4.93,13.07,12.46c0,.38,0,.8-.05,1.23h-21.97Zm.14-3.41h17.81c-.85-4.03-4.22-6.58-8.91-6.58s-8.05,2.56-8.9,6.58Z"/><path class="b" d="M373.31,186.82l-.23,4.03c-.66-.14-1.66-.19-2.37-.19-4.12,0-7.15,1.52-9.95,4.97v15.25h-4.07v-23.68h4.07v5.16c2.65-3.74,5.87-5.73,10.56-5.73,.71,0,1.42,.05,1.99,.19Z"/><path class="b" d="M426.23,177.25v33.63h-4.07v-4.69c-2.42,3.46-5.69,5.26-9.71,5.26-6.82,0-11.51-5.07-11.51-12.41s4.69-12.41,11.51-12.41c4.03,0,7.29,1.8,9.71,5.26v-14.63h4.07Zm-4.07,17.9c-2.18-3.03-5.54-4.83-9.05-4.83-4.88,0-8,3.46-8,8.71s3.12,8.72,8,8.72c3.51,0,6.87-1.8,9.05-4.83v-7.77Z"/><path class="b" d="M441.54,200.32c.52,4.74,4.26,7.44,10.42,7.44,3.36,0,5.97-.85,8.76-2.89l1.61,3.36c-2.99,2.18-6.49,3.22-10.71,3.22-8.86,0-14.35-4.78-14.35-12.41s5.3-12.41,13.21-12.41,13.07,4.93,13.07,12.46c0,.38,0,.8-.05,1.23h-21.97Zm.14-3.41h17.81c-.85-4.03-4.22-6.58-8.91-6.58s-8.05,2.56-8.9,6.58Z"/><path class="b" d="M531.41,195.77v15.11h-4.07v-14.35c0-4.07-1.75-6.2-5.4-6.2-3.13,0-5.64,1.61-7.54,4.12,.05,.43,.05,.85,.05,1.33v15.11h-4.07v-14.35c0-4.07-1.8-6.2-5.21-6.2-3.18,0-5.73,1.85-7.67,4.83v15.72h-4.07v-23.68h4.07v4.69c2.32-3.46,5.3-5.26,8.95-5.26s6.35,1.9,7.44,5.26c2.23-3.22,5.26-5.26,9.33-5.26,5.26,0,8.2,3.41,8.2,9.14Z"/><path class="b" d="M566.2,197.43v13.45h-4.07v-4.69c-2.56,3.36-6.58,5.26-11.13,5.26-5.59,0-9-2.79-9-7.39s3.55-7.44,9.66-7.44c3.65,0,7.63,1,10.47,2.61v-1.47c0-5.12-2.51-7.44-8.24-7.44-3.36,0-6.3,.8-8.81,2.51l-1.61-3.32c2.98-1.94,6.44-2.89,10.85-2.89,8.19,0,11.89,3.36,11.89,10.8Zm-4.07,5.02c-2.41-1.47-6.11-2.37-9.66-2.37-4.21,0-6.3,1.28-6.3,3.88s1.94,3.84,5.54,3.84c4.22,0,8.15-1.8,10.42-4.78v-.57Z"/><path class="b" d="M594.97,186.82l-.23,4.03c-.67-.14-1.66-.19-2.37-.19-4.12,0-7.15,1.52-9.95,4.97v15.25h-4.07v-23.68h4.07v5.16c2.65-3.74,5.87-5.73,10.56-5.73,.71,0,1.42,.05,1.99,.19Z"/><path class="b" d="M602.81,199.14c0-7.63,5.35-12.5,13.4-12.5,3.41,0,6.49,.81,9,2.51l-1.47,3.41c-2.23-1.52-4.83-2.23-7.48-2.23-5.54,0-9.28,3.41-9.28,8.76s3.74,8.67,9.66,8.67c2.94,0,5.4-.81,7.81-2.56l1.66,3.46c-2.79,1.89-6.02,2.79-9.66,2.79-8.48,0-13.64-4.83-13.64-12.31Z"/><path class="b" d="M658.88,197.43v13.45h-4.07v-4.69c-2.56,3.36-6.58,5.26-11.13,5.26-5.59,0-9-2.79-9-7.39s3.55-7.44,9.66-7.44c3.65,0,7.63,1,10.47,2.61v-1.47c0-5.12-2.51-7.44-8.24-7.44-3.36,0-6.3,.8-8.81,2.51l-1.61-3.32c2.99-1.94,6.44-2.89,10.85-2.89,8.19,0,11.89,3.36,11.89,10.8Zm-4.07,5.02c-2.42-1.47-6.11-2.37-9.66-2.37-4.22,0-6.3,1.28-6.3,3.88s1.94,3.84,5.54,3.84c4.22,0,8.15-1.8,10.42-4.78v-.57Z"/><path class="b" d="M669.05,207.94l1.8-3.27c3.22,2.04,6.63,3.17,10.94,3.17,4.69,0,7.34-1.28,7.34-3.6,0-2.13-1.61-2.8-8-3.32-8.19-.66-10.99-2.46-10.99-7.06s4.21-7.25,11.04-7.25c4.21,0,7.91,.99,10.66,2.89l-1.61,3.27c-2.37-1.66-5.59-2.56-9.28-2.56-4.26,0-6.68,1.28-6.68,3.51s1.66,2.8,8.05,3.32c8.1,.66,10.94,2.46,10.94,7.06s-4.17,7.34-11.6,7.34c-5.07,0-9.28-1.28-12.6-3.51Z"/><path class="b" d="M745.41,197.43v13.45h-4.07v-4.69c-2.56,3.36-6.58,5.26-11.13,5.26-5.59,0-8.99-2.79-8.99-7.39s3.55-7.44,9.66-7.44c3.65,0,7.62,1,10.47,2.61v-1.47c0-5.12-2.51-7.44-8.24-7.44-3.36,0-6.3,.8-8.81,2.51l-1.61-3.32c2.99-1.94,6.44-2.89,10.84-2.89,8.2,0,11.89,3.36,11.89,10.8Zm-4.07,5.02c-2.42-1.47-6.11-2.37-9.66-2.37-4.22,0-6.3,1.28-6.3,3.88s1.94,3.84,5.54,3.84c4.21,0,8.15-1.8,10.42-4.78v-.57Z"/><path class="b" d="M764.99,187.2h9.57v3.41h-9.57v20.27h-4.07v-20.27h-6.63v-3.41h6.63v-2.79c0-5.12,2.7-7.72,8.05-7.72,2.27,0,4.31,.47,6.25,1.47l-1.14,3.41c-1.61-.8-3.13-1.18-4.74-1.18-3.03,0-4.36,1.37-4.36,4.36v2.46Z"/><path class="b" d="M786.56,200.32c.52,4.74,4.26,7.44,10.42,7.44,3.36,0,5.97-.85,8.76-2.89l1.61,3.36c-2.99,2.18-6.49,3.22-10.71,3.22-8.86,0-14.35-4.78-14.35-12.41s5.3-12.41,13.21-12.41,13.07,4.93,13.07,12.46c0,.38,0,.8-.05,1.23h-21.97Zm.14-3.41h17.81c-.85-4.03-4.22-6.58-8.91-6.58s-8.05,2.56-8.9,6.58Z"/><path class="b" d="M837.14,209.98c-1.94,.99-4.03,1.47-6.4,1.47-5.3,0-7.9-2.37-7.9-7.25v-13.59h-6.63v-3.41h6.63v-8.53h4.07v8.53h9.57v3.41h-9.57v13.26c0,2.75,1.23,3.88,4.22,3.88,1.8,0,3.41-.43,4.92-1.23l1.09,3.46Z"/><path class="b" d="M846.42,179.9c0-1.56,1.14-2.65,2.79-2.65s2.79,1.09,2.79,2.65-1.14,2.65-2.79,2.65-2.79-1.09-2.79-2.65Zm.76,7.29h4.07v23.68h-4.07v-23.68Z"/><path class="b" d="M887.58,187.2l-11.22,23.68h-4.12l-11.22-23.68h4.45l8.9,19.04,8.91-19.04h4.31Z"/><path class="b" d="M919.59,197.43v13.45h-4.07v-4.69c-2.56,3.36-6.58,5.26-11.13,5.26-5.59,0-9-2.79-9-7.39s3.55-7.44,9.66-7.44c3.65,0,7.63,1,10.47,2.61v-1.47c0-5.12-2.51-7.44-8.24-7.44-3.36,0-6.3,.8-8.81,2.51l-1.61-3.32c2.99-1.94,6.44-2.89,10.85-2.89,8.19,0,11.89,3.36,11.89,10.8Zm-4.07,5.02c-2.42-1.47-6.11-2.37-9.66-2.37-4.22,0-6.3,1.28-6.3,3.88s1.94,3.84,5.54,3.84c4.22,0,8.15-1.8,10.42-4.78v-.57Z"/><path class="b" d="M929.75,207.94l1.8-3.27c3.22,2.04,6.63,3.17,10.94,3.17,4.69,0,7.34-1.28,7.34-3.6,0-2.13-1.61-2.8-8-3.32-8.2-.66-10.99-2.46-10.99-7.06s4.21-7.25,11.04-7.25c4.21,0,7.91,.99,10.66,2.89l-1.61,3.27c-2.37-1.66-5.59-2.56-9.29-2.56-4.26,0-6.68,1.28-6.68,3.51s1.66,2.8,8.05,3.32c8.1,.66,10.94,2.46,10.94,7.06s-4.17,7.34-11.6,7.34c-5.07,0-9.29-1.28-12.6-3.51Z"/></g><g><g><path class="b" d="M8.1,121.86c5.55,8.81,14.98,13.3,28.08,13.39v-2.7c-11.32-.2-18.57-9.37-19.43-24.61V0L0,6.56l.33,1.47c1.14,5.12,1.83,8.21,1.83,14.14V101.42c.19,8.93,2.25,16,5.95,20.44Z"/><polygon class="b" points="210.49 14.45 202.41 30.74 212.34 30.74 225.99 14.45 210.49 14.45"/><path class="b" d="M355.76,14.28c-4.59,0-8.32,3.73-8.32,8.31s3.73,8.32,8.32,8.32,8.32-3.74,8.32-8.32-3.73-8.31-8.32-8.31Z"/><path class="b" d="M366.09,134.43c-1.15-5.08-1.83-8.14-1.83-14.02V44.59l-16.75,6.5,.32,1.42c1.15,5.08,1.84,8.15,1.84,14.03v53.86c0,5.86-.68,8.91-1.82,13.97l-.3,1.34h18.84l-.29-1.29Z"/><path class="b" d="M199.05,51.65V120.44c0,5.88-.69,8.94-1.83,14.02l-.29,1.29h18.84l-.29-1.29c-1.15-5.08-1.83-8.14-1.83-14.02V51.65h-14.6Z"/><path class="b" d="M147.21,36.72l.08,63.87c0,15.97,5.86,34.99,33.69,35.16v-2.57c-12.1-.21-19.61-10.37-19.61-26.61V45.78c0-.3,.25-.54,.55-.54h23.32v-4.31h-23.32c-.3,0-.55-.25-.55-.55V14.57l-16.25,6.55,.31,1.44c1.11,5.13,1.78,8.23,1.78,14.16Z"/><path class="b" d="M119.08,50.62c-2.58-2.02-5.58-3.66-8.91-4.86-3.35-1.2-7-2.08-10.83-2.62-3.88-.55-7.73-.83-11.42-.83-7.06,0-13.79,1.13-20.01,3.35-6.2,2.23-11.66,5.42-16.24,9.5-4.57,4.07-8.21,9.05-10.82,14.82-2.6,5.76-3.92,12.27-3.92,19.35,0,6.48,1.18,15.89,6.8,23.9,3.03,4.32,7.14,8.42,11.88,11.87,9.15,6.63,20.38,10.14,32.48,10.14,19.86,0,37.57-9.3,46.4-24.31h-3.24c-7.44,11.71-22.35,19.26-38.05,19.26s-27.34-5.31-34.94-15.35l-.1-.12,.03-.16c.63-4.02,2.89-7.87,6.7-11.44,3.68-3.44,7.97-6.61,12.76-9.43,4.84-2.87,9.89-5.39,15-7.5,5.13-2.12,9.47-3.92,12.98-5.37,2.38-.97,4.94-1.96,7.62-2.92,2.66-.96,5.07-2.12,7.18-3.44,3.15-2.01,5.09-4.39,5.76-7.07,.66-2.71,.25-5.75-1.21-9.05-1.34-3.08-3.33-5.68-5.91-7.71Zm-9.06,22.73c-1.3,1.63-3.05,3.01-5.2,4.12-2.87,1.33-6.69,3.05-11.69,5.29-4.87,2.18-9.86,4.7-14.83,7.46-4.99,2.78-9.6,5.84-13.68,9.08-4.07,3.22-6.75,6.61-7.97,10.04l-.34,.94-.37-.93c-2.27-5.73-3.41-12.15-3.41-19.1,0-5.12,.83-10.43,2.46-15.79,1.64-5.36,4.06-10.31,7.21-14.7,3.14-4.39,7.1-8.04,11.77-10.86,4.69-2.81,10.13-4.24,16.19-4.24,6.85,0,12.26,2.1,16.07,6.23,3.81,4.11,5.75,9.5,5.75,16.02,0,2.62-.66,4.79-1.96,6.43Z"/><path class="b" d="M463.18,135.25h10.64c-1.33-6.06-2.2-11.5-2.2-18.15v-36.85c0-23.85-15.93-37.53-43.7-37.53-12.13,0-23.45,4.4-33.66,13.05v14.2c7.23-14.19,20.29-23.73,33.63-24.47,.59-.04,1.17-.05,1.74-.05,14.69,0,24.78,10.6,26.51,28.06l.35,3.53v27.15l-.73-1.96c-4.79-12.92-15.56-28.32-39.66-28.32-16.91,0-36.65,7.71-36.65,29.43v1.41c0,14.15,6.72,31.01,38.76,31.01,16.43,0,30.69-6.27,37.72-10.01l.55-.29v.8c0,4.24,2.86,8.99,6.68,8.99Zm-6.88-12.72c-7.46,3.88-19.12,8.51-32.25,8.51-27.17,0-29.28-20.12-29.28-26.29v-1.41c0-16.08,9.69-26.47,24.7-26.47,21.23,0,35.51,21.15,37.04,41.59v3.96l-.2,.1Z"/><path class="b" d="M292.27,42.87c-2.62-.11-4.92-.16-7.23-.16-29.03,0-52.64,20.87-52.64,46.52s23.61,46.52,52.64,46.52c19.87,0,37.59-9.63,46.41-25.17h-3.25c-7.53,12.27-23,21.16-36.86,21.16-26.02,0-43.5-17.86-43.5-44.44,0-24.61,15.29-41.8,37.19-41.8,2.21,0,4.53,.18,7.29,.56,12.42,1.73,24.77,7.69,31.2,12.62v-13.16c-5.31-.37-9.75-.83-14.05-1.27-5.63-.58-10.94-1.12-17.21-1.37Z"/></g><g><path class="b" d="M743.7,134.99h8.23c-1.49-6.72-2.12-12.05-2.12-17.79V57.72c0-5.89,.69-8.97,1.84-14.07l.28-1.23h-18.84l.29,1.26c1.15,5.09,1.84,8.16,1.84,14.04v52.42c0,.15-.06,.29-.17,.4-12.98,11.71-24.29,16.93-36.68,16.93-15.85,0-24.58-11.21-24.58-31.57V57.72c0-5.89,.69-8.97,1.84-14.07l.28-1.23h-18.84l.29,1.26c1.15,5.09,1.84,8.16,1.84,14.04v46.02c0,24.87,20.98,31.51,33.38,31.51,13.75,0,28.57-7.19,41.73-20.24,.16-.15,.4-.21,.59-.12,.2,.09,.33,.28,.33,.5v11.11c0,4.68,3.81,8.49,8.49,8.49Z"/><path class="b" d="M1029.4,42.42c-28.08,0-50.94,20.82-50.94,46.41s22.85,46.41,50.94,46.41,50.6-20.82,50.6-46.41-22.7-46.41-50.6-46.41Zm0,90.06c-21.29,0-36.17-17.95-36.17-43.65s14.87-43.66,36.17-43.66,35.83,17.95,35.83,43.66-14.73,43.65-35.83,43.65Z"/><path class="b" d="M965.76,133.96c-1.15-5.09-1.84-8.17-1.84-14.06v-46.76c0-2.67-.23-5.21-.68-7.54-2.54-13.38-13.9-22.44-28.95-23.11-13.68-.6-29.19,3.52-43.68,11.6-.43,.23-.84,.49-1.26,.75-.29,.18-.59,.37-.89,.54l-.56,.34v-11.84l-16.75,6.5c.45,1.96,.95,3.6,1.45,5.19,.99,3.2,1.85,5.97,1.85,10.26-.09,4.39-1.16,54.08-1.16,54.08,0,5.85-.68,8.91-1.82,13.96l-.3,1.34h18.84l-.28-1.25c-1.15-5.09-1.84-8.17-1.84-14.06l.14-58.9c.29-.65,1.05-1.22,1.61-1.63,.15-.11,.29-.21,.4-.3,1.79-1.49,3.75-2.89,5.81-4.14,4.09-2.47,8.8-4.5,13.98-6.01,5.05-1.49,9.22-2.34,13.1-2.68,5.81-.48,10.34,.37,13.79,2.66,3.17,2.11,5.9,5.38,7.9,9.48,3.08,6.32,4.71,14.15,4.71,22.61v38.93c0,5.88-.69,8.94-1.83,14.02l-.29,1.29h18.84l-.28-1.25Z"/><path class="b" d="M846.13,50.37c-2.58-2.02-5.58-3.66-8.91-4.86-3.35-1.2-7-2.08-10.83-2.62-3.85-.54-7.69-.82-11.42-.82-7.07,0-13.8,1.13-20.01,3.35-6.2,2.23-11.66,5.42-16.24,9.5-4.56,4.06-8.2,9.05-10.82,14.82-2.6,5.76-3.92,12.27-3.92,19.35,0,6.48,1.18,15.88,6.8,23.9,3.03,4.31,7.14,8.42,11.88,11.87,9.15,6.62,20.38,10.13,32.47,10.13,19.86,0,37.57-9.3,46.4-24.31h-3.24c-7.44,11.71-22.34,19.26-38.05,19.26s-27.33-5.31-34.94-15.35l-.1-.12,.03-.16c.63-4.02,2.88-7.87,6.7-11.44,3.68-3.44,7.97-6.61,12.76-9.43,4.84-2.87,9.89-5.39,15-7.5l12.98-5.37c2.38-.97,4.94-1.96,7.62-2.92,2.65-.95,5.07-2.11,7.18-3.44,3.15-1.99,5.09-4.37,5.76-7.06,.66-2.71,.25-5.76-1.21-9.05-1.34-3.09-3.33-5.68-5.91-7.71Zm-9.06,22.74c-1.3,1.63-3.05,3.01-5.2,4.11-2.93,1.36-6.85,3.14-11.69,5.29-4.81,2.15-9.8,4.66-14.83,7.46-4.98,2.78-9.58,5.83-13.68,9.08-4.07,3.24-6.75,6.61-7.97,10.04l-.34,.94-.37-.93c-2.27-5.74-3.41-12.16-3.41-19.1,0-5.12,.83-10.43,2.46-15.79,1.64-5.36,4.06-10.31,7.21-14.7,3.14-4.37,7.09-8.03,11.77-10.85,4.68-2.82,10.13-4.25,16.19-4.25,6.85,0,12.26,2.1,16.07,6.23,3.81,4.11,5.75,9.5,5.75,16.03,0,2.62-.66,4.78-1.96,6.43Z"/><path class="b" d="M600.11,45.92c-16.12,0-30,7.13-38.09,19.55l-.69,1.05V0l-16.69,6.48,.33,1.46c1.14,5.05,1.82,8.1,1.82,13.94v57.96c0,.14-.02,.27-.02,.41v36.85c0,6.65-.85,12.09-2.13,18.15h10.3c3.43,0,6.02-4.07,6.39-8.04v-8.44l.99,.94c6.51,6.18,16.36,15.54,35.07,15.54,28.5,0,48.4-18.44,48.4-44.83s-19.21-44.49-45.68-44.49Zm-5.43,84.8c-16.58,0-26.84-9.39-32.98-14.99l-.37-.34,.04-44.19c5.56-10.34,18.7-20.76,35.51-20.76,20.26,0,33.35,15.68,33.35,39.97,0,26-12.62,40.31-35.55,40.31Z"/></g></g></svg>