<?xml version="1.0" encoding="UTF-8"?><svg id="a" xmlns="http://www.w3.org/2000/svg" viewBox="0 0 2050.3 170.93"><defs><style>.b{fill:#232222;}</style></defs><g><g><path class="b" d="M1424.54,112.9c-1,7.3-6.04,15.82,0,21.86,6.04-6.04,1-14.57,0-21.86Z"/><path class="b" d="M1424.54,111.57c1-7.3,6.04-15.82,0-21.86-6.04,6.04-1,14.57,0,21.86Z"/></g><g><path class="b" d="M1423.87,112.23c-7.3-1-15.82-6.04-21.86,0,6.04,6.04,14.57,1,21.86,0Z"/><path class="b" d="M1425.21,112.23c7.3,1,15.82,6.04,21.86,0-6.04-6.04-14.57-1-21.86,0Z"/></g><g><path class="b" d="M1424.2,112.58c-4.27,3.24-11.25,5.04-11.25,11.25,6.22,0,8.02-6.98,11.25-11.25Z"/><path class="b" d="M1424.88,111.89c4.27-3.24,11.25-5.04,11.25-11.25-6.22,0-8.02,6.98-11.25,11.25Z"/></g><g><path class="b" d="M1424.2,111.89c-3.24-4.27-5.04-11.25-11.25-11.25,0,6.22,6.98,8.02,11.25,11.25Z"/><path class="b" d="M1424.88,112.58c3.24,4.27,5.04,11.25,11.25,11.25,0-6.22-6.98-8.02-11.25-11.25Z"/></g></g><g><g><path class="b" d="M10.2,153.43c6.99,11.1,18.87,16.75,35.35,16.86v-3.39c-14.25-.25-23.39-11.8-24.47-30.99V0L0,8.26l.41,1.84c1.43,6.45,2.3,10.34,2.3,17.8V127.7c.24,11.24,2.83,20.14,7.49,25.73Z"/><polygon class="b" points="265.03 18.19 254.85 38.71 267.35 38.71 284.54 18.19 265.03 18.19"/><path class="b" d="M447.94,17.98c-5.78,0-10.48,4.69-10.48,10.47s4.7,10.48,10.48,10.48,10.48-4.7,10.48-10.48-4.7-10.47-10.48-10.47Z"/><path class="b" d="M460.94,169.25c-1.44-6.39-2.31-10.25-2.31-17.65V56.14l-21.09,8.19,.4,1.79c1.44,6.4,2.32,10.26,2.32,17.66v67.82c0,7.38-.86,11.22-2.3,17.59l-.38,1.69h23.72l-.36-1.62Z"/><path class="b" d="M250.62,65.03v86.62c0,7.41-.87,11.26-2.31,17.65l-.36,1.62h23.73l-.36-1.62c-1.44-6.39-2.31-10.25-2.31-17.65V65.03h-18.38Z"/><path class="b" d="M185.35,46.24l.1,80.42c0,20.11,7.37,44.06,42.42,44.27v-3.24c-15.24-.26-24.69-13.05-24.69-33.51V57.64c0-.38,.31-.68,.69-.68h29.36v-5.42h-29.36c-.38,0-.69-.31-.69-.69V18.34l-20.47,8.25,.39,1.82c1.4,6.46,2.25,10.36,2.25,17.83Z"/><path class="b" d="M149.94,63.74c-3.25-2.55-7.02-4.6-11.22-6.11-4.22-1.51-8.81-2.62-13.64-3.3-4.89-.69-9.73-1.04-14.38-1.04-8.89,0-17.36,1.42-25.19,4.22-7.8,2.8-14.68,6.83-20.45,11.96-5.76,5.12-10.33,11.39-13.62,18.66-3.27,7.25-4.93,15.45-4.93,24.36,0,8.16,1.48,20.01,8.56,30.1,3.81,5.44,8.99,10.61,14.96,14.94,11.52,8.35,25.66,12.76,40.89,12.76,25,0,47.31-11.7,58.42-30.61h-4.08c-9.37,14.74-28.14,24.25-47.91,24.25s-34.42-6.69-43.99-19.33l-.12-.16,.03-.2c.8-5.06,3.63-9.91,8.44-14.41,4.63-4.33,10.03-8.32,16.07-11.88,6.1-3.62,12.45-6.79,18.89-9.44,6.46-2.67,11.92-4.93,16.34-6.76,3-1.23,6.23-2.46,9.6-3.68,3.35-1.21,6.39-2.67,9.04-4.33,3.97-2.53,6.41-5.52,7.25-8.9,.83-3.41,.31-7.24-1.53-11.39-1.69-3.88-4.19-7.15-7.44-9.7Zm-11.4,28.62c-1.64,2.05-3.84,3.79-6.55,5.18-3.62,1.67-8.43,3.85-14.72,6.66-6.14,2.75-12.42,5.91-18.67,9.4-6.29,3.5-12.08,7.35-17.22,11.43-5.12,4.06-8.5,8.32-10.03,12.65l-.42,1.19-.46-1.17c-2.85-7.21-4.3-15.3-4.3-24.04,0-6.45,1.04-13.13,3.09-19.88,2.06-6.75,5.11-12.99,9.08-18.51,3.96-5.52,8.94-10.13,14.82-13.67,5.9-3.54,12.76-5.34,20.38-5.34,8.63,0,15.44,2.64,20.24,7.84,4.8,5.17,7.24,11.96,7.24,20.17,0,3.3-.83,6.03-2.46,8.1Z"/><path class="b" d="M583.19,170.29h13.4c-1.67-7.63-2.77-14.48-2.77-22.86v-46.39c0-30.03-20.06-47.26-55.02-47.26-15.27,0-29.52,5.53-42.38,16.44v17.88c9.11-17.87,25.54-29.88,42.35-30.81,.74-.05,1.47-.06,2.19-.06,18.5,0,31.2,13.35,33.37,35.33l.44,4.45v34.19l-.91-2.46c-6.03-16.27-19.59-35.66-49.93-35.66-21.29,0-46.15,9.7-46.15,37.05v1.77c0,17.81,8.47,39.04,48.8,39.04,20.69,0,38.64-7.9,47.5-12.6l.69-.37v1.01c0,5.34,3.6,11.32,8.41,11.32Zm-8.67-16.01c-9.4,4.89-24.07,10.72-40.61,10.72-34.21,0-36.87-25.34-36.87-33.1v-1.77c0-20.24,12.21-33.32,31.1-33.32,26.73,0,44.71,26.63,46.64,52.37v4.98l-.25,.13Z"/><path class="b" d="M368,53.98c-3.3-.14-6.19-.2-9.1-.2-36.55,0-66.28,26.28-66.28,58.58s29.73,58.57,66.28,58.57c25.01,0,47.32-12.12,58.44-31.69h-4.09c-9.48,15.45-28.96,26.64-46.41,26.64-32.76,0-54.77-22.49-54.77-55.96,0-30.99,19.25-52.63,46.83-52.63,2.79,0,5.7,.22,9.18,.7,15.64,2.18,31.18,9.68,39.29,15.89v-16.57c-6.69-.47-12.28-1.04-17.69-1.6-7.08-.73-13.78-1.41-21.67-1.72Z"/></g><g><path class="b" d="M936.39,169.97h10.36c-1.87-8.46-2.67-15.17-2.67-22.39V72.68c0-7.42,.87-11.3,2.32-17.72l.35-1.55h-23.72l.36,1.59c1.44,6.41,2.32,10.27,2.32,17.68v66c0,.18-.07,.37-.21,.5-16.34,14.75-30.58,21.31-46.19,21.31-19.95,0-30.94-14.12-30.94-39.75v-48.06c0-7.42,.87-11.3,2.32-17.72l.35-1.55h-23.72l.36,1.59c1.44,6.41,2.32,10.27,2.32,17.68v57.94c0,31.31,26.42,39.67,42.03,39.67,17.31,0,35.97-9.06,52.54-25.48,.2-.19,.5-.26,.75-.15,.25,.11,.41,.35,.41,.63v13.99c0,5.89,4.8,10.69,10.69,10.69Z"/><path class="b" d="M1296.12,53.41c-35.36,0-64.13,26.21-64.13,58.44s28.77,58.44,64.13,58.44,63.7-26.21,63.7-58.44-28.58-58.44-63.7-58.44Zm0,113.4c-26.81,0-45.54-22.6-45.54-54.96s18.73-54.97,45.54-54.97,45.11,22.61,45.11,54.97-18.55,54.96-45.11,54.96Z"/><path class="b" d="M1215.99,168.66c-1.44-6.41-2.32-10.28-2.32-17.7v-58.88c0-3.37-.29-6.56-.85-9.5-3.2-16.84-17.51-28.26-36.45-29.1-17.23-.76-36.75,4.43-54.99,14.6-.54,.3-1.06,.62-1.59,.95-.37,.23-.74,.46-1.12,.68l-.71,.42v-14.9l-21.09,8.19c.56,2.47,1.2,4.54,1.82,6.53,1.25,4.03,2.33,7.52,2.33,12.92-.12,5.52-1.46,68.09-1.46,68.09,0,7.37-.86,11.22-2.3,17.58l-.38,1.69h23.72l-.36-1.58c-1.44-6.41-2.32-10.28-2.32-17.7l.18-74.16c.37-.82,1.33-1.53,2.02-2.06,.19-.14,.37-.27,.5-.38,2.26-1.88,4.72-3.63,7.31-5.21,5.16-3.11,11.08-5.66,17.6-7.57,6.36-1.87,11.6-2.94,16.49-3.38,7.32-.61,13.02,.46,17.36,3.35,3.99,2.66,7.43,6.78,9.95,11.93,3.88,7.96,5.93,17.81,5.93,28.46v49.01c0,7.41-.87,11.26-2.31,17.65l-.36,1.62h23.72l-.36-1.58Z"/><path class="b" d="M1065.36,63.42c-3.25-2.55-7.02-4.6-11.22-6.11-4.22-1.51-8.81-2.62-13.64-3.3-4.85-.68-9.68-1.03-14.38-1.03-8.9,0-17.38,1.42-25.19,4.22-7.8,2.8-14.68,6.83-20.45,11.96-5.75,5.11-10.33,11.39-13.62,18.66-3.27,7.25-4.93,15.45-4.93,24.37,0,8.15,1.48,20,8.56,30.1,3.81,5.43,8.99,10.61,14.96,14.94,11.52,8.34,25.66,12.76,40.89,12.76,25,0,47.31-11.7,58.42-30.61h-4.08c-9.36,14.74-28.13,24.25-47.91,24.25s-34.42-6.69-43.99-19.33l-.12-.16,.03-.2c.79-5.06,3.63-9.91,8.44-14.41,4.63-4.33,10.03-8.32,16.07-11.88,6.1-3.62,12.45-6.79,18.89-9.44l16.34-6.76c3-1.23,6.23-2.46,9.6-3.68,3.34-1.2,6.38-2.66,9.04-4.33,3.97-2.51,6.41-5.51,7.25-8.89,.83-3.41,.31-7.25-1.53-11.4-1.69-3.89-4.2-7.15-7.44-9.7Zm-11.4,28.63c-1.64,2.05-3.85,3.79-6.55,5.17-3.68,1.71-8.63,3.95-14.72,6.66-6.05,2.71-12.34,5.87-18.67,9.4-6.27,3.5-12.06,7.34-17.22,11.43-5.13,4.08-8.5,8.33-10.03,12.65l-.42,1.19-.46-1.17c-2.85-7.22-4.3-15.31-4.3-24.04,0-6.45,1.04-13.13,3.09-19.88,2.06-6.75,5.11-12.99,9.08-18.51,3.95-5.51,8.93-10.11,14.82-13.66,5.89-3.55,12.75-5.35,20.38-5.35,8.63,0,15.44,2.64,20.24,7.84,4.8,5.17,7.24,11.96,7.24,20.18,0,3.29-.83,6.02-2.46,8.1Z"/><path class="b" d="M755.6,57.82c-20.3,0-37.78,8.97-47.96,24.62l-.87,1.33V0l-21.02,8.16,.41,1.84c1.43,6.35,2.3,10.2,2.3,17.55V100.53c0,.17-.02,.34-.02,.51v46.39c0,8.37-1.07,15.23-2.68,22.85h12.97c4.32,0,7.58-5.12,8.05-10.12v-10.62l1.24,1.18c8.2,7.78,20.6,19.56,44.16,19.56,35.88,0,60.94-23.21,60.94-56.45s-24.19-56.02-57.52-56.02Zm-6.84,106.78c-20.87,0-33.8-11.82-41.53-18.88l-.46-.42,.06-55.63c7.01-13.01,23.55-26.14,44.7-26.14,25.51,0,41.99,19.75,41.99,50.32,0,32.73-15.9,50.76-44.76,50.76Z"/></g></g><g><path class="b" d="M1520.11,57.74v40.82h-4.95v-5.69c-2.93,4.19-6.9,6.38-11.78,6.38-8.28,0-13.97-6.15-13.97-15.06s5.69-15.06,13.97-15.06c4.89,0,8.85,2.18,11.78,6.38v-17.77h4.95Zm-4.95,21.73c-2.64-3.68-6.72-5.87-10.98-5.87-5.92,0-9.72,4.2-9.72,10.58s3.8,10.58,9.72,10.58c4.26,0,8.34-2.18,10.98-5.86v-9.43Z"/><path class="b" d="M1538.7,85.73c.63,5.75,5.17,9.03,12.65,9.03,4.08,0,7.24-1.04,10.63-3.5l1.95,4.08c-3.62,2.64-7.87,3.91-12.99,3.91-10.75,0-17.42-5.81-17.42-15.06s6.44-15.06,16.04-15.06,15.87,5.98,15.87,15.12c0,.46,0,.98-.06,1.49h-26.67Zm.17-4.14h21.62c-1.04-4.89-5.12-7.99-10.81-7.99s-9.77,3.11-10.81,7.99Z"/><path class="b" d="M1576.08,94.99l2.19-3.97c3.91,2.47,8.04,3.85,13.28,3.85,5.69,0,8.91-1.55,8.91-4.37,0-2.59-1.95-3.39-9.72-4.02-9.94-.81-13.34-2.99-13.34-8.57s5.12-8.79,13.4-8.79c5.12,0,9.6,1.21,12.93,3.5l-1.95,3.97c-2.87-2.01-6.79-3.1-11.27-3.1-5.18,0-8.11,1.55-8.11,4.25s2.01,3.39,9.77,4.02c9.83,.81,13.28,2.99,13.28,8.56s-5.06,8.91-14.09,8.91c-6.15,0-11.27-1.55-15.29-4.26Z"/><path class="b" d="M1617.5,60.95c0-1.9,1.38-3.22,3.39-3.22s3.39,1.32,3.39,3.22-1.38,3.22-3.39,3.22-3.39-1.33-3.39-3.22Zm.92,8.86h4.94v28.75h-4.94v-28.75Z"/><path class="b" d="M1667.48,69.81v26.21c0,9.2-5.63,14.14-16.1,14.14-4.77,0-8.85-1.04-12.3-3.11l1.73-4.14c3.39,1.95,6.5,2.76,10.18,2.76,7.65,0,11.55-3.45,11.55-10.17v-2.64c-2.93,4.19-6.9,6.38-11.79,6.38-8.28,0-13.97-6.15-13.97-15.06s5.69-15.06,13.97-15.06c4.89,0,8.86,2.18,11.79,6.38v-5.69h4.94Zm-4.94,9.66c-2.64-3.68-6.73-5.87-10.98-5.87-5.92,0-9.72,4.2-9.72,10.58s3.8,10.58,9.72,10.58c4.25,0,8.34-2.18,10.98-5.86v-9.43Z"/><path class="b" d="M1711.23,80.22v18.34h-4.94v-17.42c0-4.94-2.64-7.53-7.59-7.53-4.6,0-8.28,2.25-11.09,5.87v19.09h-4.95v-28.75h4.95v5.69c3.22-4.2,7.41-6.38,12.47-6.38,6.96,0,11.15,4.08,11.15,11.1Z"/><path class="b" d="M1729.46,85.73c.63,5.75,5.18,9.03,12.65,9.03,4.08,0,7.24-1.04,10.63-3.5l1.95,4.08c-3.62,2.64-7.88,3.91-12.99,3.91-10.75,0-17.42-5.81-17.42-15.06s6.44-15.06,16.04-15.06,15.87,5.98,15.87,15.12c0,.46,0,.98-.05,1.49h-26.68Zm.17-4.14h21.62c-1.04-4.89-5.11-7.99-10.81-7.99s-9.77,3.11-10.81,7.99Z"/><path class="b" d="M1789.64,69.35l-.29,4.89c-.8-.17-2.01-.23-2.87-.23-5,0-8.68,1.84-12.07,6.04v18.51h-4.94v-28.75h4.94v6.27c3.22-4.54,7.13-6.96,12.82-6.96,.86,0,1.73,.06,2.41,.23Z"/><path class="b" d="M1853.9,57.74v40.82h-4.95v-5.69c-2.93,4.19-6.9,6.38-11.78,6.38-8.28,0-13.97-6.15-13.97-15.06s5.69-15.06,13.97-15.06c4.89,0,8.85,2.18,11.78,6.38v-17.77h4.95Zm-4.95,21.73c-2.64-3.68-6.72-5.87-10.98-5.87-5.92,0-9.72,4.2-9.72,10.58s3.8,10.58,9.72,10.58c4.26,0,8.34-2.18,10.98-5.86v-9.43Z"/><path class="b" d="M1872.5,85.73c.63,5.75,5.17,9.03,12.65,9.03,4.08,0,7.24-1.04,10.63-3.5l1.95,4.08c-3.62,2.64-7.87,3.91-12.99,3.91-10.75,0-17.42-5.81-17.42-15.06s6.44-15.06,16.04-15.06,15.87,5.98,15.87,15.12c0,.46,0,.98-.06,1.49h-26.67Zm.17-4.14h21.62c-1.04-4.89-5.12-7.99-10.81-7.99s-9.77,3.11-10.81,7.99Z"/><path class="b" d="M1537.24,144.93v18.34h-4.94v-17.42c0-4.94-2.12-7.53-6.55-7.53-3.8,0-6.84,1.96-9.14,5,.06,.52,.06,1.04,.06,1.61v18.34h-4.94v-17.42c0-4.94-2.19-7.53-6.32-7.53-3.85,0-6.96,2.25-9.31,5.87v19.09h-4.95v-28.75h4.95v5.69c2.81-4.2,6.44-6.38,10.86-6.38s7.7,2.3,9.03,6.38c2.7-3.91,6.38-6.38,11.33-6.38,6.38,0,9.94,4.14,9.94,11.1Z"/><path class="b" d="M1579.48,146.94v16.33h-4.94v-5.69c-3.11,4.08-7.99,6.38-13.51,6.38-6.79,0-10.92-3.39-10.92-8.97s4.31-9.03,11.73-9.03c4.43,0,9.25,1.21,12.71,3.16v-1.78c0-6.21-3.05-9.03-10-9.03-4.08,0-7.65,.98-10.69,3.05l-1.95-4.02c3.62-2.36,7.82-3.5,13.16-3.5,9.94,0,14.43,4.08,14.43,13.11Zm-4.94,6.09c-2.93-1.78-7.42-2.87-11.73-2.87-5.12,0-7.65,1.55-7.65,4.71s2.36,4.66,6.73,4.66c5.11,0,9.89-2.19,12.65-5.81v-.69Z"/><path class="b" d="M1614.42,134.06l-.29,4.89c-.8-.17-2.01-.23-2.87-.23-5,0-8.68,1.84-12.07,6.04v18.51h-4.94v-28.75h4.94v6.27c3.22-4.54,7.13-6.96,12.82-6.96,.86,0,1.73,.06,2.41,.23Z"/><path class="b" d="M1623.95,149.01c0-9.25,6.49-15.18,16.27-15.18,4.14,0,7.87,.98,10.92,3.05l-1.78,4.14c-2.7-1.84-5.87-2.7-9.08-2.7-6.73,0-11.27,4.14-11.27,10.64s4.54,10.52,11.72,10.52c3.57,0,6.56-.98,9.49-3.11l2.01,4.2c-3.39,2.3-7.3,3.39-11.73,3.39-10.29,0-16.56-5.87-16.56-14.95Z"/><path class="b" d="M1692.03,146.94v16.33h-4.94v-5.69c-3.11,4.08-7.99,6.38-13.51,6.38-6.79,0-10.92-3.39-10.92-8.97s4.31-9.03,11.73-9.03c4.43,0,9.25,1.21,12.71,3.16v-1.78c0-6.21-3.05-9.03-10-9.03-4.08,0-7.65,.98-10.69,3.05l-1.95-4.02c3.62-2.36,7.82-3.5,13.16-3.5,9.94,0,14.43,4.08,14.43,13.11Zm-4.94,6.09c-2.93-1.78-7.42-2.87-11.73-2.87-5.12,0-7.65,1.55-7.65,4.71s2.36,4.66,6.73,4.66c5.11,0,9.89-2.19,12.65-5.81v-.69Z"/><path class="b" d="M1704.37,159.7l2.18-3.97c3.91,2.47,8.05,3.85,13.28,3.85,5.69,0,8.91-1.55,8.91-4.37,0-2.59-1.95-3.39-9.72-4.02-9.95-.81-13.34-2.99-13.34-8.57s5.11-8.79,13.4-8.79c5.11,0,9.6,1.21,12.93,3.5l-1.95,3.97c-2.88-2.01-6.79-3.1-11.27-3.1-5.17,0-8.1,1.55-8.1,4.25s2.01,3.39,9.77,4.02c9.83,.81,13.28,2.99,13.28,8.56s-5.06,8.91-14.09,8.91c-6.15,0-11.27-1.55-15.29-4.26Z"/><path class="b" d="M1797.09,146.94v16.33h-4.95v-5.69c-3.1,4.08-7.99,6.38-13.51,6.38-6.79,0-10.93-3.39-10.93-8.97s4.31-9.03,11.73-9.03c4.43,0,9.26,1.21,12.71,3.16v-1.78c0-6.21-3.05-9.03-10-9.03-4.08,0-7.65,.98-10.69,3.05l-1.95-4.02c3.62-2.36,7.82-3.5,13.17-3.5,9.94,0,14.43,4.08,14.43,13.11Zm-4.95,6.09c-2.93-1.78-7.42-2.87-11.73-2.87-5.11,0-7.65,1.55-7.65,4.71s2.36,4.66,6.73,4.66c5.12,0,9.89-2.19,12.65-5.81v-.69Z"/><path class="b" d="M1820.86,134.52h11.61v4.14h-11.61v24.61h-4.94v-24.61h-8.05v-4.14h8.05v-3.39c0-6.21,3.28-9.37,9.77-9.37,2.76,0,5.23,.57,7.59,1.78l-1.38,4.14c-1.95-.98-3.8-1.44-5.75-1.44-3.68,0-5.29,1.67-5.29,5.29v2.99Z"/><path class="b" d="M1847.06,150.44c.63,5.75,5.17,9.03,12.65,9.03,4.08,0,7.24-1.04,10.63-3.5l1.95,4.08c-3.62,2.64-7.87,3.91-12.99,3.91-10.75,0-17.42-5.81-17.42-15.06s6.44-15.06,16.04-15.06,15.87,5.98,15.87,15.12c0,.46,0,.98-.06,1.49h-26.67Zm.17-4.14h21.62c-1.04-4.89-5.12-7.99-10.81-7.99s-9.77,3.11-10.81,7.99Z"/><path class="b" d="M1908.46,162.17c-2.35,1.21-4.89,1.78-7.76,1.78-6.44,0-9.6-2.88-9.6-8.8v-16.5h-8.05v-4.14h8.05v-10.35h4.95v10.35h11.61v4.14h-11.61v16.1c0,3.33,1.49,4.71,5.11,4.71,2.19,0,4.14-.52,5.98-1.49l1.32,4.19Z"/><path class="b" d="M1919.73,125.67c0-1.9,1.38-3.22,3.39-3.22s3.39,1.32,3.39,3.22-1.38,3.22-3.39,3.22-3.39-1.33-3.39-3.22Zm.92,8.86h4.95v28.75h-4.95v-28.75Z"/><path class="b" d="M1969.71,134.52l-13.62,28.75h-5l-13.63-28.75h5.4l10.81,23.11,10.81-23.11h5.23Z"/><path class="b" d="M2008.58,146.94v16.33h-4.95v-5.69c-3.1,4.08-7.99,6.38-13.51,6.38-6.79,0-10.93-3.39-10.93-8.97s4.31-9.03,11.73-9.03c4.43,0,9.26,1.21,12.71,3.16v-1.78c0-6.21-3.05-9.03-10-9.03-4.08,0-7.65,.98-10.69,3.05l-1.95-4.02c3.62-2.36,7.82-3.5,13.17-3.5,9.94,0,14.43,4.08,14.43,13.11Zm-4.95,6.09c-2.93-1.78-7.42-2.87-11.73-2.87-5.11,0-7.65,1.55-7.65,4.71s2.36,4.66,6.73,4.66c5.12,0,9.89-2.19,12.65-5.81v-.69Z"/><path class="b" d="M2020.92,159.7l2.18-3.97c3.91,2.47,8.05,3.85,13.28,3.85,5.69,0,8.91-1.55,8.91-4.37,0-2.59-1.95-3.39-9.72-4.02-9.95-.81-13.34-2.99-13.34-8.57s5.11-8.79,13.4-8.79c5.11,0,9.6,1.21,12.93,3.5l-1.95,3.97c-2.88-2.01-6.79-3.1-11.27-3.1-5.17,0-8.1,1.55-8.1,4.25s2.01,3.39,9.77,4.02c9.83,.81,13.28,2.99,13.28,8.56s-5.06,8.91-14.09,8.91c-6.15,0-11.27-1.55-15.29-4.26Z"/></g></svg>