<?xml version="1.0" encoding="UTF-8"?><svg id="a" xmlns="http://www.w3.org/2000/svg" viewBox="0 0 400.69 308.93"><defs><style>.b{fill:#fbf9f5;}</style></defs><g><g><path class="b" d="M362.43,155.6c-1.7,12.39-10.25,26.87,0,37.12,10.25-10.25,1.7-24.73,0-37.12Z"/><path class="b" d="M362.43,153.33c1.7-12.39,10.25-26.87,0-37.12-10.25,10.25-1.7,24.73,0,37.12Z"/></g><g><path class="b" d="M361.3,154.47c-12.39-1.7-26.87-10.25-37.12,0,10.25,10.25,24.73,1.7,37.12,0Z"/><path class="b" d="M363.57,154.47c12.39,1.7,26.87,10.25,37.12,0-10.25-10.25-24.73-1.7-37.12,0Z"/></g><g><path class="b" d="M361.85,155.05c-7.25,5.5-19.11,8.56-19.11,19.11,10.55,0,13.61-11.86,19.11-19.11Z"/><path class="b" d="M363.02,153.88c7.25-5.5,19.11-8.56,19.11-19.11-10.55,0-13.61,11.86-19.11,19.11Z"/></g><g><path class="b" d="M361.85,153.88c-5.5-7.25-8.56-19.11-19.11-19.11,0,10.55,11.86,13.61,19.11,19.11Z"/><path class="b" d="M363.02,155.05c5.5,7.25,8.56,19.11,19.11,19.11,0-10.55-11.86-13.61-19.11-19.11Z"/></g></g><path class="b" d="M270.01,163.49c6.28-7.57,13.87-20.95,13.11-41.52-1.36-36.83-33.48-55.69-77.76-54.16h-69.01c2.76,12.4,4.48,18.59,4.48,31.67v93.02c14.82-12.92,30.99-22.7,30.99-22.7V73.24h33.54s61.73-1.41,57,52.1c-1.66,18.75-10.55,29.07-16.24,33.91-1.95-.11-3.89-.24-5.88-.24-63.89,.07-115.1,75.31-148.88,75.31H35.5V0L0,13.91c2.76,12.52,4.48,18.79,4.48,32.01v5.22h0V209.5c0,13.1-1.73,19.31-4.48,31.72H140.83v35.97c0,13.08-1.72,19.29-4.48,31.69l33.88,.03c57.3-.03,153.95,3.95,153.95-74.31,0-33.98-21.58-60.9-54.17-71.1Zm-98.19,138.59v-101.22l.99-1.99c11.74-16.98,34.37-30.99,61.54-30.99,38.1,0,61.32,27.5,60.09,66.7-2.51,80.46-108.59,69.32-122.62,67.49Z"/></svg>