<?xml version="1.0" encoding="UTF-8"?><svg id="a" xmlns="http://www.w3.org/2000/svg" viewBox="0 0 314.26 314.26"><defs><style>.b{fill:#232222;}</style></defs><g><path class="b" d="M157.13,161.78c-7,50.88-42.11,110.37,0,152.48,42.11-42.11,7-101.6,0-152.48Z"/><path class="b" d="M157.13,152.48c7-50.88,42.11-110.37,0-152.48-42.11,42.11-7,101.6,0,152.48Z"/></g><g><path class="b" d="M152.48,157.13c-50.88-7-110.37-42.11-152.48,0,42.11,42.11,101.6,7,152.48,0Z"/><path class="b" d="M161.78,157.13c50.88,7,110.37,42.11,152.48,0-42.11-42.11-101.6-7-152.48,0Z"/></g><g><path class="b" d="M154.73,159.52c-29.8,22.59-78.49,35.14-78.5,78.5,43.35,0,55.91-48.7,78.5-78.5Z"/><path class="b" d="M159.52,154.73c29.8-22.59,78.49-35.14,78.5-78.5-43.35,0-55.91,48.7-78.5,78.5Z"/></g><g><path class="b" d="M154.73,154.73c-22.59-29.8-35.14-78.49-78.5-78.5,0,43.35,48.7,55.91,78.5,78.5Z"/><path class="b" d="M159.52,159.52c22.59,29.8,35.14,78.49,78.5,78.5,0-43.35-48.7-55.91-78.5-78.5Z"/></g></svg>